<?xml version="1.0" standalone="no"?>
<!DOCTYPE svg PUBLIC "-//W3C//DTD SVG 1.1//EN" "http://www.w3.org/Graphics/SVG/1.1/DTD/svg11.dtd" >
<svg xmlns="http://www.w3.org/2000/svg">
<metadata>
This is a custom SVG font generated by IcoMoon.
3
</metadata>
<defs>
<font id="clio-icons" horiz-adv-x="512" >
<font-face units-per-em="512" ascent="461" descent="-51" />
<missing-glyph horiz-adv-x="512" />
<glyph unicode="&#x2b;" d="M 496.00,269.00L 320.00,269.00 L 320.00,445.00 c0.00,8.832-7.152,16.00-16.00,16.00l-96.00,0.00 c-8.848,0.00-16.00-7.168-16.00-16.00l0.00-176.00 L 16.00,269.00 
		c-8.848,0.00-16.00-7.168-16.00-16.00l0.00-96.00 c0.00-8.848, 7.152-16.00, 16.00-16.00l 176.00,0.00 l0.00-176.00 c0.00-8.848, 7.152-16.00, 16.00-16.00l 96.00,0.00 c 8.848,0.00, 16.00,7.152, 16.00,16.00L 320.00,141.00 l 176.00,0.00 c 8.848,0.00, 16.00,7.152, 16.00,16.00l0.00,96.00 
		C 512.00,261.832, 504.848,269.00, 496.00,269.00z" />
<glyph unicode="&#x74;" d="M 256.00,461.00C 114.608,461.00,0.00,346.376,0.00,205.00c0.00-141.376, 114.608-256.00, 256.00-256.00s 256.00,114.624, 256.00,256.00
			C 512.00,346.376, 397.392,461.00, 256.00,461.00z M 256.00,13.00C 149.968,13.00, 64.00,98.968, 64.00,205.00S 149.968,397.00, 256.00,397.00s 192.00-85.968, 192.00-192.00S 362.032,13.00, 256.00,13.00zM 368.00,237.00l-80.00,0.00 L 288.00,349.00 c0.00,8.832-7.152,16.00-16.00,16.00l-32.00,0.00 c-8.848,0.00-16.00-7.168-16.00-16.00l0.00-160.00 c0.00-8.848, 7.152-16.00, 16.00-16.00
	l 128.00,0.00 c 8.848,0.00, 16.00,7.152, 16.00,16.00l0.00,32.00 C 384.00,229.848, 376.848,237.00, 368.00,237.00z" />
<glyph unicode="&#x78;" d="M 491.536,352.616l-147.152-148.048l 147.152-147.168c 6.16-6.144, 6.16-16.112,0.00-22.272
	l-66.816-66.80c-6.128-6.16-16.096-6.16-22.256,0.00l-146.912,146.912l-146.032-146.912c-6.144-6.16-16.112-6.16-22.272,0.00l-66.80,66.80
	c-6.144,6.16-6.144,16.128,0.00,22.272l 146.032,146.912L 20.464,350.328c-6.144,6.144-6.144,16.112,0.00,22.272l 66.80,66.80
	c 6.144,6.16, 16.112,6.16, 22.272,0.00l 145.76-145.76l 147.184,148.048c 6.16,6.16, 16.128,6.16, 22.256,0.00l 66.816-66.80
	C 497.68,368.728, 497.68,358.76, 491.536,352.616z" />
<glyph unicode="&#x48;" d="M 351.232,219.848l0.00-193.536 l-90.624,0.00 l0.00,120.32 l-77.824,0.00 l0.00-120.32 l-93.696,0.00 l0.00,193.536 l-78.336,0.00 l 210.944,210.432l 210.432-210.432l-80.896,0.00 z" horiz-adv-x="442.88" />
<glyph unicode="&#x47;" d="M 235.52,434.376q 89.088,0.00 152.064-62.976t 62.976-152.064t-62.976-152.064t-152.064-62.976t-152.064,62.976t-62.976,152.064t 62.976,152.064t 152.064,62.976zM 377.856,282.312l-0.512-1.536q-0.512-1.536 -0.512-2.816t 1.024-1.28q0.00-1.024 1.536-3.072t 1.536-4.096l0.00-5.632 q 0.512-1.024 2.56-1.536q 0.512-2.048 3.072-2.56t 3.072,1.536q-1.536,0.00 -1.28,2.304t-0.256,2.304q0.00,1.024 -0.512,1.536q-1.024,1.024 -1.024,1.536l 3.584,0.00 q0.00,1.024 -1.024,2.56t-1.024,2.048q-0.512,0.00 -1.28-0.512t-1.024-0.512t-0.256,1.024 t-2.048,3.072l-1.024,3.584q 1.536,0.00 3.072,0.512q-0.512,0.00 2.048,1.024q-0.512,0.512 -1.024,2.048q-1.024,2.048 -3.584,1.024q-1.024,0.00 -2.56-1.28t-2.56-1.28zM 376.32,118.472q 32.256,46.08 32.256,100.864q0.00,9.728 -0.512,14.336q-4.608,0.00 -6.656,1.024q-2.048,0.00 -7.424,2.304t-8.448,1.28q0.00,0.512 -0.512,0.512q 1.024,1.536 -2.56,5.632q-2.56,2.048 -3.584,0.00q-1.024-1.536 2.56-5.12q0.00-1.024 1.024-3.072q 1.024-0.512 0.512-1.536t-0.512-1.536q 2.048,0.00 2.56,3.584q0.00-0.512 0.512-0.512q-1.024-1.536 0.512-3.072l0.00-2.56 q 5.12,0.00 7.168,5.12 q 0.512,0.00 0.512-1.024t 0.512-1.536q 1.536-1.536 1.024-2.56t 1.024-1.024q 1.024-0.512 1.024,0.512l0.00,1.024 q 2.048-1.024 2.048-3.072t-2.048-3.072q0.00-0.512 -0.512-1.536t-0.512-2.048q0.00-3.072 -2.048-4.096l-2.048-1.024q-2.048-1.536 -4.096-2.816t-2.048-1.792q-6.144,0.00 -7.68-3.584q-3.584,0.00 -5.632-2.048q-3.072,0.00 -4.352,3.072t-2.304,3.072l-1.024,2.56q 0.512,0.00 -0.512,3.072l-3.072,6.656q-1.536,3.584 -1.536,4.608l-2.56,5.12q-1.024,0.512 -3.584,6.144q-4.096,2.048 -5.12,6.656q 5.12,0.00 5.12,2.048q-0.512,0.00 -1.024,0.512q-1.024,1.024 0.512,1.024l 1.536,4.608 q0.00,0.512 0.512,2.816t 0.512,3.328q-1.024,0.00 -4.096-1.024q0.00-0.512 -0.768-0.256t-1.792,0.256l-1.536,0.512q0.00,0.512 -3.328,0.00t-4.352,1.024q-1.024,1.024 -2.048,7.168q-0.512,1.536 -4.096,1.536q-1.536,0.512 -1.792-0.512t 0.256-2.56l 0.512-2.048q 1.024,0.00 -1.024-3.584q-0.512-0.512 -0.512-1.024q-2.048,0.512 -3.072,3.072t-2.048,3.072q-0.512,2.048 -1.536,2.048q0.00,5.12 -0.512,5.12l-1.536,0.512q-2.048,1.024 -2.56,1.536q-1.024,0.00 -2.816,1.792t-3.328,2.816t-2.048,0.00l 1.536-3.072q 1.024,0.00 2.56-2.304t 3.584-1.792l0.00-2.56  q 1.536,0.512 2.304-0.768t 1.28-1.28q0.00-0.512 -1.536,0.00q-2.048,1.024 -1.536-0.512q 1.024-3.072 -2.048-4.608q0.00,6.144 -1.536,6.144q-1.024,1.536 -3.584,2.56t-3.072,2.048q-0.512,0.00 -1.792,1.792t-2.304,2.304q-1.024-1.024 -2.56-1.024q-0.512-1.024 -2.304-1.28t-3.84,0.256l-1.536,0.512q-3.584-9.216 -4.096-10.24q-0.512-1.536 -1.536-2.56t-1.536-2.56q0.00-0.512 -3.84-0.768t-3.84-0.768q-5.632,2.048 -5.632,6.656l0.00,2.56 q0.00,2.048 0.512,4.608t 0.512,3.072l 1.024-1.024l 1.536,0.00 l 2.56,0.00 q 1.024,0.00 1.792,0.512t 0.768,1.024 q 2.048,0.00 1.536-2.048q 4.608-1.536 4.608,1.536q-1.024,0.00 -1.024,1.024q 1.536,2.048 1.024,3.584t-2.048,3.072t-1.536,2.048l-2.048,2.048q 4.608-3.072 5.632-0.512q0.00,0.512 -0.512,1.536l0.00,0.512 q 1.024-1.024 1.792-1.28t 1.28,0.768q 1.024,0.512 1.536,1.536l0.00,3.072 q 1.536-2.048 2.304,0.00t 1.28,2.56q0.00-1.536 1.536,0.00q 1.024,1.024 1.536,1.024q 0.512,1.024 2.56,1.28t 2.56,1.792q-1.536,0.512 -1.536,6.144q 1.024,0.00 2.304,0.768t 1.792,0.768t 1.024-1.024q0.00-3.072 0.512-3.072q 2.048,1.024 2.048,2.56q-1.024,0.00 -2.56,5.12q-1.536,0.00 -2.56-1.024q-1.536,0.00 -3.84,0.512t-3.328,0.512 q-3.584,3.584 -3.072,3.584q-1.024,2.048 1.024,2.56l 1.024,0.00 q0.00,1.024 5.888,2.56t 6.40,4.096q-3.072,0.00 4.096,6.656q 5.12,4.096 7.168,4.096q 0.512,0.00 4.608,1.024l 7.68,2.048q 3.072,0.512 4.096-0.512q 11.264,0.00 11.264-1.024q 0.512,0.00 1.792-0.512t 2.048-0.768t 1.792,0.256q 1.536,1.024 5.632-1.024t 4.096-4.096q-1.536,0.00 -6.144-0.512t-7.168-0.512l0.00-1.024 q 1.024,0.00 2.816-2.304t 1.28-3.328q 1.536,0.00 3.072,1.024t 2.048,1.024q0.00-1.024 0.512-1.536q 1.536-1.024 2.048,1.536l-0.512,2.048q 0.512,1.024 2.304,1.28t 2.304,1.792q-24.064,28.672 -58.624,45.056 t-73.472,16.384q-68.608,0.00 -118.272-46.592q 0.512-0.512 2.56,1.024l 1.024,0.512q0.00-3.072 0.512-4.096l 1.536-3.584q 4.096,0.00 4.608-1.024l-2.56,0.00 q 0.512-3.072 -1.536-2.048q-1.536,0.512 -2.048,0.512q0.00,0.512 -1.536,1.024t-2.56,0.00t0.00-2.56q 0.512,0.00 1.024-0.512t 1.536-1.024q 1.024,0.00 3.328-0.512t 3.328-1.024q 1.024,0.00 2.56,0.256t 2.048,0.256q 1.024,0.512 1.536,1.024t-0.512,1.024q 0.512,1.024 -2.048,2.048q0.00,0.512 5.632,0.512q 1.024,1.024 0.768,1.792t 0.256,1.792t 2.048,1.024t 2.048,1.536q 2.048-1.024 2.56-3.072q 0.512,0.00 1.536-1.536q 4.608-5.12 4.608-1.536q 3.072-0.512 3.072-5.632 q 3.584,0.512 3.584,5.632q-0.512,0.00 -0.512,1.536l 2.048,0.00 q 1.024-0.512 1.024,0.512q 0.512,0.00 0.512-1.024l 4.096,0.00 l0.00-5.632 q0.00-1.024 -1.024-1.536t-1.536-0.512l-1.024-0.512q-1.536-2.048 -0.768-2.56t 3.328-1.792t 3.072-1.792l-4.096,0.512q-0.512,0.00 -2.304-0.256t-3.072-0.512t-2.304,0.256q 2.56,0.00 3.584,5.632q-4.096,1.024 -5.632-2.56q-0.512-2.048 -2.048-1.792t-2.048-0.768l-1.024-0.512q-1.536-0.512 -2.56-0.768t-1.024,0.256q-3.584-1.024 -3.584-8.704q 5.632-4.096 5.632-6.144q 2.048-0.512 4.864-1.024t 4.352-0.512 q 0.512-1.536 2.048-1.536q0.00-2.048 4.608-2.048q0.00,3.072 3.072-2.048q 0.512-1.024 0.512-1.536q-0.512,0.00 0.00-1.28t 1.536-2.816q-1.024,0.00 -0.512-0.512q 1.024-1.024 2.816-0.512t 1.792,1.536q-1.024,0.00 -1.024,3.072q-3.072,3.072 0.512,4.096q0.00-2.048 3.072,0.512q 1.024,1.024 -0.512,1.536q 1.024,4.608 0.00,6.144q-0.512,0.512 -1.28,0.512t-1.28,1.024q 2.048,0.512 0.512,7.168l 2.56,0.00 q 1.024,0.00 2.816-0.768t 2.816-0.512t 1.536,1.792q 1.536-1.024 2.304-2.56t 2.304,0.512q0.00-0.512 2.048-2.816t 2.56-2.304q0.00-1.536 1.024-1.536l-0.512-1.024q 3.584,0.00 3.584,0.512 q 3.072,0.00 3.072,4.096q 0.512,0.00 1.536-1.536l 1.024-3.072q 1.024-1.536 1.536-1.536l 1.536-1.536l 1.024-1.024q 1.024-1.024 1.536-1.792t 0.512-1.28q 1.024-1.024 1.024-2.56q 0.512,0.00 1.024,1.024q 1.536,1.536 1.536-0.512q 1.024,0.00 2.304-1.28t 1.28-1.792q-1.024,0.00 -0.768-1.024t-0.256-1.024q0.00-0.512 -5.632-0.512q-0.512-2.56 -3.072-3.072t-5.632,0.256t-5.632-0.256q-2.048-1.024 -4.864-4.352t-2.816-5.376q 1.536,0.00 3.84,1.792t 3.328,2.304q 1.024,0.00 5.12,2.048q0.00-0.512 0.512-0.512l0.00-0.512 q-3.072,0.00 -1.024-3.584 q 0.512-0.512 0.512-1.024q 1.536-2.56 4.096-2.56q0.00-0.512 -1.28-0.512t-1.28-1.024l-2.56-1.536l-3.072,0.00 l 0.512,0.512l 0.512,0.512l 1.536,0.00 l0.00,2.048 q-1.536,0.00 -3.072-0.768t-2.56-0.768q-2.048-2.048 -3.072-2.048q-1.024-5.12 -3.072-6.144l-1.024-0.512l-2.048-1.024l-1.024-1.024l-1.024-1.024q-0.512-1.024 -1.024-2.56q-1.536-3.584 -1.536-4.608q-0.512,0.00 -1.792-2.816t-3.328-2.816q-0.512-1.024 -2.816-3.072t-2.304-5.12q 0.512-0.512 0.768-2.048t 0.768-3.328t 0.512-2.304q0.00-4.096 -2.048-4.096l-1.024,1.536 q-1.024,1.536 -0.512,1.536q0.00,2.048 -2.048,6.144q0.00,1.024 -2.304,0.768t-2.816-0.256q-0.512,1.536 -6.656,1.536q0.00-0.512 0.512-1.024t 0.512-1.536q-3.072-1.024 -3.584-1.024q-1.024,0.00 -2.304,1.28t-2.816,0.768q-7.168-1.024 -7.168-8.192q-0.512,0.00 -0.512-4.352t 0.512-4.352q0.00-1.024 1.024-3.072t 1.024-2.56q 1.024,0.00 3.072-2.048t 2.56-2.048q 0.512-2.048 2.56-2.048l 1.024,0.512l 1.024,2.048q-1.536,0.512 -0.768,1.792t 1.792,1.792q0.00-1.024 3.072,1.024l 3.072,1.024l 1.024,1.024q 0.512-1.536 -0.512-2.048q-1.024,0.00 -1.536-1.536l-0.512-1.024 q-0.512-1.024 -1.024-2.56t-0.512-2.56t 0.512-2.304t0.00-2.304l 6.656,0.00 l0.00,1.536 q 1.536,0.00 1.28-3.328t 0.768-3.328q0.00-1.024 0.512-3.072t 0.512-2.56q 2.56-1.536 2.048-4.096q 6.144,0.00 6.144,1.536q 3.584,0.00 2.56-3.584q 2.56,0.00 3.072,1.536t 0.512,2.816t 1.024,1.28q0.00,1.536 1.024,0.512l 3.072,1.536l 1.536,1.024q 1.024-0.512 1.024-1.024q 2.56,0.00 4.608,2.048q 1.024,0.00 2.048-2.56t 3.072-2.56q 6.144,0.00 6.656,0.512q 1.536-1.024 1.536-1.536q 0.512,0.00 1.024-0.512l 0.512-0.512l 0.512,0.00 l 2.048-2.048q0.00-1.024 1.28-1.536t 1.28-1.024l 0.512-0.512l 1.536-1.024l 4.608-1.536q 0.512,1.536 2.048,0.00 q 0.512-0.512 1.024-0.512l 1.024-1.024q 0.512-0.512 2.048-3.584q 1.024-1.024 2.048-5.632q-0.512,0.00 -0.512-4.096l 2.048-0.512q 1.024,0.00 1.024,1.024q 1.024,0.00 2.56-1.024t 2.048-1.024q-1.024-1.024 0.512-1.792t 1.536,1.28q 1.536,0.00 1.536-5.632q 1.024,0.00 2.304,0.768t 2.304,0.768q 3.072,0.00 3.072,0.512q 4.096-1.024 6.656-4.096q 2.56-2.56 2.816-7.168t-2.304-7.168l-4.096-5.12q0.00-6.144 -0.512-6.144q0.00-7.168 -1.536-7.168q0.00-1.536 -1.28-3.584t-1.792-3.072q-0.512-0.512 -3.328-2.304t-3.328-2.816 q-0.512,0.00 -2.048-0.512t-2.048-0.512l-1.024-1.536q-1.536-1.536 -1.024-1.536q0.00-0.512 -0.256-3.84t-0.768-4.352q-2.048-1.024 -1.536-2.048q-0.512,0.00 -0.768-0.512t-1.792-0.512q-1.024,0.00 -2.56-1.28t-1.536-2.816q-1.024-4.096 -3.072-5.632l-1.536-1.024q-2.048-1.024 -2.048-2.048l0.00-4.096 q-3.072,0.00 -4.096-2.048q-2.048,0.00 -5.632-2.048q0.00-2.048 -1.024-2.048q0.00-2.048 -1.536-1.536t-2.048,0.00q 1.024,0.00 1.024-3.072q0.00-0.512 -3.072-4.608l-0.512-1.024q-1.024-1.536 -1.536-1.536q0.00-0.512 -0.256-2.048 t-0.256-2.56l0.00-1.536 l 1.024,1.024q0.00,0.512 1.024-0.512q-0.512-1.024 -1.536-2.048t-1.536-2.56q-2.56,0.00 -2.56-4.096q0.00-1.024 0.512-1.024q0.00-0.512 1.024-2.56l-13.824,4.608q0.00,18.944 2.048,18.944q0.00,4.608 1.024,4.608l0.00,7.168 q-0.512,1.024 0.768,3.328t 1.28,3.328q 1.536,0.512 1.792,5.12t 0.256,8.704t 1.024,4.096q0.00,2.048 0.768,10.496t-0.256,10.496l-3.584,4.096q-2.56,0.00 -4.608,3.328t-2.048,6.40q-1.536,4.608 -1.536,5.12q 0.512,0.00 -1.024,2.304t-3.072,4.864l-2.048,2.56q-1.536,1.536 -1.536,2.304t 1.024,2.56t 1.024,3.328 q-2.048,1.024 -1.024,5.376t 2.56,4.352q0.00,1.536 1.536,2.048q 0.512-1.536 1.536-1.024q 1.536,1.536 0.00,2.56l0.00,6.656 q0.00,5.12 -2.56,5.12q-1.024,0.00 -2.048-2.56q-0.512,0.512 -2.56,0.768t-3.584,1.024t-1.536,2.304q 1.024,3.072 -4.096,5.632q 0.512,2.048 -2.816,4.352t-5.376,2.304q0.00,0.512 -1.024,0.768t-1.024,0.768q-1.024,0.00 -2.56,1.536t-3.072,1.536q-2.048,0.00 -5.12,1.28t-4.608,1.28q-0.512,1.024 -3.328,1.536t-3.328,1.536q-3.584,0.00 -3.584,6.656q0.00,9.216 -4.608,9.216q0.00,1.536 -2.048,3.328t-3.072,1.792q-1.536,3.584 -2.56,3.584 q0.00,2.048 -3.072,4.608q-1.536,1.024 -1.536,0.00q-0.512-1.024 1.28-2.816t 1.792-2.816q 0.512,0.00 4.096-6.656q 3.072-5.12 1.536-5.632q-2.048-0.512 -5.12,4.096q-1.024,2.048 -1.024,3.072q-1.024,0.512 -2.304,3.328t-1.28,3.84q-0.512,0.512 -1.28,2.048t-1.28,3.072l-0.512,1.024q0.00,5.12 -5.632,5.12l-3.584,4.608q0.00,5.12 -4.096,6.656q0.00,1.024 -0.512,4.608t0.00,5.12q0.00,11.776 -5.12,15.872q-16.896-34.816 -16.896-73.728q0.00-71.68 50.944-122.368t 122.624-50.688q 41.984,0.00 78.336,18.944t 60.416,51.20 q-3.584-1.024 -4.608,4.608q-0.512,3.072 -0.512,6.144q0.00,5.632 1.536,10.24q 2.56-1.024 3.072,0.00q-2.048,0.512 -1.024,3.072q 5.12-3.584 5.12,1.024l-1.024,1.024q0.00,1.024 0.512,1.536t 0.768,0.256t 0.256-1.28q 1.536,0.00 1.792,2.304t 0.768,2.816q0.00-5.632 1.536-6.144q 1.024-1.024 -0.256-2.304t-1.28-1.792q-1.024-0.512 -1.024-3.072l-1.536,0.00 q0.00-1.536 -0.512-4.352t-0.512-3.84q-1.024,0.00 -1.024-8.192zM 340.992,273.096q 1.024-0.512 1.024-2.048q 12.80,0.00 12.80,1.536q 0.512-1.024 1.024-1.536t 1.024,1.024q 0.512,0.00 2.304-1.536 t 3.84-1.024l 3.584,2.048l-1.024,0.512q0.00,3.072 -2.56,4.864t-3.072,2.304q-0.512,0.00 -1.792,0.512t-2.304,0.512q-1.536,1.024 -3.072-0.512q-1.536-1.024 -1.536,0.00q-0.512,1.024 -1.536,1.024q0.00,4.096 -4.608,3.584q-0.512-1.536 -1.792-3.584t-1.792-3.84t-0.512-3.84zM 265.216,328.392q0.00-2.56 -0.512-2.56q-2.56-1.536 -5.12-1.536l-5.632,0.00 q-1.024,0.00 -5.12,1.024q0.00,0.512 0.512,1.024q 1.536,2.048 -0.512,2.048q 3.584,1.536 4.096,1.536l0.00-0.512 l0.00-2.048 q0.00-0.512 1.024-0.256t 2.304,0.512t 1.792,0.768q 1.536,0.00 3.072,0.512q 0.512,0.512 0.768,0.256 t 0.256-1.792zM 282.112,304.328q0.00,1.024 -0.512,2.048t-0.512,2.048q0.00,1.536 1.536,1.28t 2.048,1.792q 1.536-0.512 0.00-1.536l0.00-2.048 q 1.024,0.00 2.048,1.024t 1.536,1.024q-1.024-3.584 -0.512-4.096q 2.56-2.56 2.048-3.072q 3.584,0.00 2.56-5.632q 1.536,0.00 1.536,1.536q 1.024-0.512 1.024-1.28t-1.024-0.768q-1.536-2.56 -7.68-2.56q0.00,3.072 -2.048,1.536q-1.536-0.512 -1.024,2.048q 0.512,1.024 0.512,1.536q-1.024,0.512 2.56,1.024q-0.512,4.096 -4.096,4.096zM 274.432,296.136q-1.024,1.024 0.00,4.096q-1.536,0.512 0.512,1.024l 2.56,1.024q-2.048,0.00 -1.024,2.048l 1.024,0.00 q 0.512-1.024 1.024-0.512l 2.048,0.00  q 0.512-0.512 0.00-1.536q-1.536-6.144 -6.144-6.144zM 282.112,293.064q 0.512,0.00 0.512,0.512l 1.536,0.00 q0.00-1.024 -0.768-1.024t-1.28,0.512zM 200.704,282.312q 0.512,0.512 2.048,1.536q0.00-1.536 -2.048-1.536zM 306.176,275.656q 1.024,0.00 -0.512-3.072q-0.512,1.024 -1.024,2.56q 1.536,0.00 1.536,0.512zM 306.176,271.56q 1.024,0.00 0.768-2.304t-2.816-1.792q0.00,3.584 1.024,3.584l 0.512-1.024q 0.512,0.512 0.512,1.536zM 317.44,263.88q0.00-2.048 -0.512-2.304t-2.304,0.768t-2.816,1.024l 2.56,0.00 q 0.512-0.512 3.072,0.512zM 372.736,199.88q 3.072,0.00 3.072,0.512 q 5.12,0.00 8.192,1.536q0.00-2.048 -1.28-4.864t-0.768-4.864q-1.536,0.00 -1.536-2.56l-1.024-1.024q-1.024-1.536 -2.048-2.048q0.00-1.024 -4.608-5.632q-0.512-1.024 -2.816-3.328t-2.816-3.328q-7.168-7.168 -5.12-7.168q0.00-12.288 1.024-12.288l 0.512-3.072q 0.512-3.072 0.512-5.12t-0.512-2.56q0.00-1.536 -1.024-3.84t-1.024-3.328l-1.024-0.512l-1.536-1.536q-1.024,0.00 -2.048-1.792t-1.536-1.792q0.00-2.048 -0.512-5.632t-0.512-5.632l-0.512-2.048l-1.024-3.072l-0.512-2.048 q-7.68-4.096 -7.68-8.704q-3.584-5.12 -4.096-6.144q-9.728,0.00 -9.728-2.048l-7.68,0.00 q0.00,1.024 -0.512,3.072t-0.512,3.584q-0.512,0.00 -1.024,1.792t-1.024,1.792q0.00,0.512 -1.28,3.328t-2.304,5.632t-0.512,2.816q0.00,4.608 -1.536,4.608q0.00,2.048 -1.28,5.632t-1.28,5.12q-0.512,0.00 -1.024,2.048t-0.768,3.84t 0.256,2.304q0.00,2.048 2.048,11.264q 0.512,4.608 -1.536,11.776q-2.048,0.00 -2.048,3.072q-3.072,2.048 -3.072,7.68q 3.072,3.072 1.536,10.24q-1.536,0.512 -7.168,0.512q-0.512,1.536 -3.84,2.048t-8.448,0.00l-5.12-0.512 q-0.512-1.024 -2.304-0.768t-4.352,1.28t-2.56,1.536q-1.536,0.00 -3.84,2.304t-2.304,4.352q-2.048,0.512 -4.096,4.864t-2.048,6.40q-2.048,2.048 0.00,4.608q0.00,1.536 -1.536,6.144q0.00,1.024 0.768,2.048t 0.768,2.048q0.00,5.632 2.048,9.728q0.00,0.512 1.024,2.048t 1.024,2.048q 1.024,1.536 1.536,1.536q 1.024,0.512 1.536,1.536q 1.024,0.512 2.56,2.56q 1.024,1.536 1.536,2.048q 1.536,0.512 0.00,2.048q 2.048,0.00 2.048,5.12q 1.024,1.536 3.072,1.536l 0.512,0.512q 2.048,2.56 2.56,2.56q 1.024,1.536 3.072,1.536q 0.512-0.512 1.28-0.512t 2.304,0.512l 1.536,0.512q 2.56,3.584 7.168,3.584q 0.512,1.024 2.048,1.024l 0.512,0.00  q 2.048-0.512 5.376-1.024t 3.84-0.512l0.00,1.024 q 1.536-0.512 3.584-5.12t 2.048-6.144l 4.096,0.00 q0.00-2.048 5.12-2.048q 8.192,0.00 8.192,3.072q 3.072,0.00 3.072-3.072l 3.072,0.00 q 2.048,0.00 4.352-0.256t 3.84-1.024t 1.024-1.28q 1.024,0.00 2.048-1.536t 1.536-1.536q0.00-1.536 1.28-4.352t 2.304-2.816q0.00-4.096 2.56-5.632q 3.072-7.168 6.144-9.216q-0.512-1.024 0.768-3.072t 1.28-2.56q 0.512-3.072 1.536-3.584q0.00-2.048 2.56-5.888t 4.096-3.84q0.00-0.512 -0.512-1.024t 1.024-1.024zM 159.744,228.552q0.00-1.536 1.536,0.00 q0.00-2.048 -2.048-1.024q-1.024,0.00 -0.512,1.536q 0.512,0.00 1.024-0.512zM 167.936,229.064q 2.048-0.512 3.84-1.792t 2.816-1.28q 1.536-1.536 1.792-2.048t-0.768-1.024q-4.096-1.024 -6.144,2.56q-2.56,0.00 -5.12,2.56q 3.072,0.00 3.584,1.024zM 185.344,221.896l 1.024-0.512q 1.024-1.024 1.536-2.048l 0.512-0.512l-6.656,0.00 q-0.512-0.512 -2.304-0.512t-2.304,1.024l 3.584,0.00 l-1.024,2.048q 0.512,0.00 2.56-0.512t 3.072-0.512l0.00,1.536 zM 169.472,219.336q 2.048,0.00 2.048-1.536q-2.56,0.00 -2.048,1.536zM 172.032,217.80l 1.024,1.536q 0.512,0.00 0.512-1.024q-0.512-0.512 -1.536-0.512z M 192.512,219.336q 1.536,0.00 1.536-0.512q-2.048,1.024 -1.536,0.512zM 190.976,219.336l 1.024-0.512q-0.512,0.00 -0.512-0.256t-0.512-0.256l0.00,1.024 zM 182.784,205.00q 0.512,0.512 0.512,1.024l 0.512-0.512q0.00-0.512 -1.024-0.512zM 378.88,145.608q0.00,1.024 1.024,1.536z" horiz-adv-x="471.04" />
<glyph unicode="&#x46;" d="M 114.688,435.40l 216.064,0.00 l0.00-418.816 l-303.616,0.00 l0.00,330.752 l 87.552,87.552l0.00,0.512 zM 295.936,51.40l0.00,349.184 l-145.92,0.00 l0.00-88.064 l-88.064,0.00 l0.00-261.12 l 233.984,0.00 z" horiz-adv-x="360.448" />
<glyph unicode="&#x33;" d="M 11.264,178.888q-5.12,5.12 -5.12,12.288t 5.12,12.288l 42.496,42.496q 5.12,5.12 12.032,5.12t 12.032-5.12l 69.632-69.12q 5.12-5.12 12.032-5.12t 12.032,5.12l 189.952,190.464q 5.12,5.12 12.032,5.12t 12.032-5.12l 42.496-41.984q 5.12-5.12 5.12-12.032t-5.12-12.032l-230.40-230.912q-12.288-12.288 -29.184-12.288l-19.968,0.00 q-16.384,0.00 -28.672,12.288z" horiz-adv-x="444.416" />
<glyph unicode="&#x26;" d="M 238.08,284.36l 128.00,0.00 l0.00-101.376 l-128.00,0.00 l0.00-128.00 l-101.376,0.00 l0.00,128.00 l-128.00,0.00 l0.00,101.376 l 128.00,0.00 l0.00,128.00 l 101.376,0.00 l0.00-128.00 z" horiz-adv-x="374.784" />
<glyph unicode="&#x2a;" d="M 377.344,327.88l-99.84-99.84l 99.84-100.352l-78.848-78.336l-99.84,99.84l-99.84-99.84l-78.848,78.336l 99.84,100.352l-99.84,99.84l 78.848,78.848l 99.84-99.84l 99.84,99.84z" horiz-adv-x="397.824" />
<glyph unicode="&#x40;" d="M 132.096,416.456q 47.104,0.00 80.64-33.792t 33.536-80.384q0.00-54.784 -103.936-279.552l-12.288-25.60l-32.256,69.12q-19.456,41.984 -51.712,125.184t-32.256,110.848q0.00,47.104 33.536,80.64t 80.64,33.536l 2.048,0.00 l 2.048,0.00 zM 130.048,259.784q 21.504,0.00 36.864,15.36t 15.36,37.376q0.00,21.504 -15.36,36.864t-36.864,15.36q-22.016,0.00 -37.376-15.36t-15.36-36.864q0.00-22.016 15.36-37.376t 37.376-15.36z" horiz-adv-x="260.096" />
<glyph unicode="&#x4f;" d="M 451.584,317.64l0.00-261.632 l-35.84,0.00 l0.00,261.632 l 35.84,0.00 zM 355.84,317.64l 24.064,0.00 l0.00-261.632 l-284.672,0.00 l0.00,261.632 l 26.624,0.00 q 34.816,68.096 62.464,68.096l 105.984,0.00 q 16.384,0.00 34.048-20.736t 31.488-47.36zM 263.168,323.784q 6.656,0.00 11.264,4.608t 4.608,11.264t-4.608,11.008t-11.264,4.352l-53.248,0.00 q-6.656,0.00 -11.008-4.352t-4.352-11.008t 4.352-11.264t 11.008-4.608l 53.248,0.00 zM 24.576,317.64l 35.328,0.00 l0.00-261.632 l-35.328,0.00 l0.00,261.632 z" horiz-adv-x="476.16" />
<glyph unicode="&#x5c;" d="M 363.52,373.448l 44.544,0.00 l0.00-378.368 l-378.88,0.00 l0.00,378.368 l 45.568,0.00 l0.00,23.552 q0.00,17.92 10.24,27.648t 28.672,9.728t 28.928-9.984t 10.496-27.392l0.00-23.552 l 26.624,0.00 l0.00,23.552 q0.00,17.408 10.496,27.392t 28.928,9.984t 28.672-9.728t 10.24-27.648l0.00-23.552 l 26.624,0.00 l0.00,23.552 q0.00,17.408 10.496,27.392t 28.928,9.984t 28.928-9.984t 10.496-27.392l0.00-23.552 zM 306.176,397.00l0.00-62.976 q0.00-16.384 17.92-16.384q 9.728,0.00 14.08,3.84t 4.352,12.544l0.00,62.976 q0.00,8.704 -4.352,12.544 t-14.08,3.84q-17.92,0.00 -17.92-16.384zM 200.704,397.00l0.00-62.976 q0.00-8.704 4.352-12.544t 14.08-3.84q 17.92,0.00 17.92,16.384l0.00,62.976 q0.00,16.384 -17.92,16.384q-9.728,0.00 -14.08-3.84t-4.352-12.544zM 95.744,397.00l0.00-62.976 q0.00-16.384 17.92-16.384q 9.728,0.00 14.08,3.84t 4.352,12.544l0.00,62.976 q0.00,8.704 -4.352,12.544t-14.08,3.84q-17.92,0.00 -17.92-16.384zM 376.32,26.312l0.00,263.168 l-315.392,0.00 l0.00-263.168 l 315.392,0.00 zM 219.648,127.688 q0.00-23.04 -17.92-35.84t-46.08-12.80q-18.432,0.00 -37.376,7.168l 3.584,26.624q 17.92-7.168 37.376-7.168q 12.288,0.00 19.456,5.632t 7.168,14.336q0.00,11.264 -8.448,16.64t-30.464,6.40l0.00,26.624 q 32.256,2.56 32.256,19.456q0.00,14.336 -21.504,14.336q-14.848,0.00 -31.232-7.68l-3.584,26.624q 17.408,7.68 43.008,7.68q 23.04,0.00 36.352-9.216t 13.312-23.552q0.00-25.60 -33.28-36.864l0.00-0.512 q 37.376-10.24 37.376-37.888zM 274.944,194.248l-26.624-10.24l-3.584,26.624l 46.592,22.528l 15.872,0.00 l0.00-151.552 l-32.256,0.00 l0.00,112.64 z " horiz-adv-x="437.248" />
<glyph unicode="&#x21;" d="M 409.60,435.40L 102.40,435.40 C 74.24,435.40, 51.20,412.36, 51.20,384.20l0.00-358.40 c0.00-28.16, 23.04-51.20, 51.20-51.20l 307.20,0.00 c 28.186,0.00, 51.20,23.04, 51.20,51.20L 460.80,384.20 C 460.80,412.36, 437.786,435.40, 409.60,435.40z M 409.60,25.80L 102.40,25.80 L 102.40,384.20 l 307.20,0.00 L 409.60,25.80 z M 281.60,153.80L 153.60,153.80 l0.00-25.60 l 128.00,0.00 
	L 281.60,153.80 z M 358.40,256.20l-102.40,0.00 l0.00-25.60 l 102.40,0.00 L 358.40,256.20 z M 256.00,281.80l 102.40,0.00 L 358.40,333.00 l-102.40,0.00 L 256.00,281.80 z M 230.40,333.00L 153.60,333.00 l0.00-102.40 l 76.80,0.00 L 230.40,333.00 z M 204.80,205.00L 153.60,205.00 l0.00-25.60 l 51.20,0.00 L 204.80,205.00 z M 230.40,179.40l 128.00,0.00 l0.00,25.60 L 230.40,205.00 L 230.40,179.40 z M 358.40,102.60L 153.60,102.60 l0.00-25.60 l 204.80,0.00 L 358.40,102.60 z M 307.20,128.20l 51.20,0.00 l0.00,25.60 l-51.20,0.00 L 307.20,128.20 z" />
<glyph unicode="&#x22;" d="M 384.00,56.52L 51.20,56.52 l0.00,230.40 l 66.432,0.00 c0.00,0.00, 17.638,22.938, 55.552,51.20L 25.60,338.12 c-14.131,0.00-25.60-11.469-25.60-25.60l0.00-281.60 c0.00-14.157, 11.469-25.60, 25.60-25.60l 384.00,0.00 c 14.157,0.00, 25.60,11.443, 25.60,25.60l0.00,95.898 
		l-51.20-42.112L 384.00,56.52 z M 342.067,234.44l0.00-90.88 L 512.00,276.706L 342.067,404.68l0.00-80.128 C 135.68,324.526, 135.68,120.52, 135.68,120.52C 194.099,216.469, 230.042,234.44, 342.067,234.44z" />
<glyph unicode="&#x23;" d="M 256.00,409.80C 185.293,409.80, 128.00,352.482, 128.00,281.80c0.00-122.214, 128.00-281.60, 128.00-281.60s 128.00,159.386, 128.00,281.60C 384.00,352.482, 326.707,409.80, 256.00,409.80z M 256.00,211.144c-38.17,0.00-69.12,30.95-69.12,69.12
		s 30.95,69.12, 69.12,69.12s 69.12-30.95, 69.12-69.12S 294.17,211.144, 256.00,211.144z" />
<glyph unicode="&#x24;" d="M 358.374,322.76L 358.40,87.24L 153.60,205.00 z" />
<glyph unicode="&#x25;" d="M 153.626,322.76L 153.60,87.24L 358.40,205.00 z" />
<glyph unicode="&#x27;" d="M 449.152,65.019l-96.742,96.742c 14.592,23.987, 22.989,52.096, 22.989,82.227c0.00,87.45-75.802,163.251-163.277,163.251
		C 124.672,407.24, 53.76,336.328, 53.76,248.878c0.00-87.475, 75.776-163.277, 163.251-163.277c 29.082,0.00, 56.32,7.885, 79.744,21.581l 97.254-97.28
		c 9.549-9.523, 24.96-9.523, 34.458,0.00l 24.141,24.115C 462.106,43.541, 458.65,55.522, 449.152,65.019z M 102.502,248.878
		c0.00,60.544, 49.075,109.645, 109.619,109.645c 60.57,0.00, 114.534-53.965, 114.534-114.534s-49.075-109.645-109.645-109.645S 102.502,188.309, 102.502,248.878z" />
<glyph unicode="&#x28;" d="M 409.60,230.60L 102.40,230.60 c-14.131,0.00-25.60-11.469-25.60-25.60s 11.469-25.60, 25.60-25.60l 307.20,0.00 c 14.157,0.00, 25.60,11.469, 25.60,25.60S 423.757,230.60, 409.60,230.60z M 102.40,281.80l 307.20,0.00 c 14.157,0.00, 25.60,11.469, 25.60,25.60
		s-11.443,25.60-25.60,25.60L 102.40,333.00 C 88.269,333.00, 76.80,321.531, 76.80,307.40S 88.269,281.80, 102.40,281.80z M 409.60,128.20L 102.40,128.20 c-14.131,0.00-25.60-11.443-25.60-25.60s 11.469-25.60, 25.60-25.60l 307.20,0.00 c 14.157,0.00, 25.60,11.443, 25.60,25.60
		S 423.757,128.20, 409.60,128.20z" />
<glyph unicode="&#x34;" d="M 30.208,394.44l 359.424-179.712l-359.424-179.20l0.00,358.912 z" horiz-adv-x="390.144" />
<glyph unicode="&#x35;" d="M 30.208,36.552l0.00,357.376 l 134.144,0.00 l0.00-357.376 l-134.144,0.00 zM 253.44,393.928l 134.144,0.00 l0.00-357.376 l-134.144,0.00 l0.00,357.376 z" horiz-adv-x="417.79200000000003" />
<glyph unicode="&#x36;" d="M 388.096,37.064l -357.888,0.00 l 0.00,357.376 l 357.888,0.00 l 0.00-357.376 z" horiz-adv-x="418.30400000000003" />
<glyph unicode="&#x29;" d="M 447.97,144.249c-0.006,0.353-0.015,0.701-0.021,1.053c-0.016,0.714-0.035,1.427-0.059,2.14C 442.875,305.266, 256.00,461.00, 256.00,461.00
		S 69.123,305.266, 64.11,147.439c-0.022-0.715-0.044-1.426-0.06-2.141c-0.007-0.352-0.015-0.701-0.021-1.053
		c-0.018-1.08-0.028-2.162-0.028-3.248c0.00-1.184, 0.014-2.361, 0.035-3.539c 0.002-0.098, 0.003-0.195, 0.007-0.293
		C 66.082,32.899, 151.241-51.00, 256.00-51.00c 104.758,0.00, 189.916,83.899, 191.959,188.168c 0.002,0.098, 0.004,0.196, 0.005,0.293
		c 0.021,1.178, 0.036,2.357, 0.036,3.539C 448.00,142.086, 447.988,143.168, 447.97,144.249z M 383.975,138.63l-0.004-0.203
		c-0.659-33.643-14.266-65.167-38.313-88.774C 321.587,26.017, 289.743,13.00, 256.00,13.00c-6.231,0.00-12.397,0.447-18.462,1.319
		c 69.528,41.423, 116.108,117.352, 116.108,204.161c0.00,9.728-0.59,19.317-1.726,28.74c 20.136-36.97, 31.032-71.40, 32.001-101.813
		l 0.002-0.072c 0.016-0.474, 0.026-0.946, 0.039-1.422l 0.014-0.724C 383.99,142.461, 384.00,141.73, 384.00,141.00
		C 384.00,140.208, 383.99,139.419, 383.975,138.63z" />
<glyph class="hidden" unicode="&#xf000;" d="M0,461L 512 -51L0 -51 z" horiz-adv-x="0" />
</font>
</defs>
</svg>
